<!DOCTYPE svg PUBLIC "-//W3C//DTD SVG 20010904//EN" "http://www.w3.org/TR/2001/REC-SVG-20010904/DTD/svg10.dtd">
<svg version="1.0" xmlns="http://www.w3.org/2000/svg" width="1000px" height="1000px" viewBox="0 0 10000 10000" preserveAspectRatio="xMidYMid meet">
<g id="layer101" fill="#000000" stroke="none">
 <path d="M3065 9326 c-106 -26 -186 -81 -251 -171 -47 -67 -78 -134 -149 -326 -25 -67 -78 -197 -117 -288 -81 -191 -411 -854 -505 -1014 -35 -59 -95 -178 -134 -265 -39 -86 -87 -188 -106 -226 -62 -124 -266 -633 -309 -773 -15 -48 -42 -128 -61 -176 -19 -48 -49 -143 -68 -210 -24 -84 -50 -148 -84 -207 -60 -103 -68 -123 -80 -200 -28 -172 66 -347 226 -423 63 -30 76 -32 173 -32 97 0 110 2 173 32 120 57 238 190 300 339 15 34 46 131 71 215 25 85 58 186 75 226 16 40 39 107 51 150 58 211 383 963 500 1158 26 44 131 244 233 445 105 208 190 365 198 365 18 0 82 -205 113 -359 14 -67 38 -164 55 -216 16 -52 50 -180 76 -285 70 -293 213 -699 361 -1028 33 -73 175 -341 269 -507 23 -41 95 -180 160 -309 134 -269 179 -327 293 -383 86 -43 216 -51 304 -20 114 40 205 127 249 239 31 80 31 212 0 302 -23 66 -225 461 -391 766 -143 261 -220 437 -317 720 -95 277 -112 334 -143 481 -17 78 -42 175 -56 216 -14 40 -36 127 -50 193 -43 203 -167 593 -283 885 -80 203 -228 475 -300 552 -110 120 -309 175 -476 134z"/>
 <path d="M5900 9116 c-119 -32 -217 -116 -271 -229 -24 -53 -31 -85 -39 -183 -6 -65 -15 -173 -20 -239 -6 -66 -10 -321 -10 -566 0 -423 2 -462 30 -740 16 -162 36 -330 44 -374 7 -44 17 -114 21 -155 3 -41 17 -140 30 -220 25 -147 48 -328 66 -500 19 -190 59 -291 150 -383 34 -34 82 -69 116 -85 52 -24 69 -27 168 -27 107 0 112 1 188 38 l78 38 167 -35 c92 -19 196 -40 232 -46 98 -15 624 -12 750 4 127 17 407 71 471 90 131 40 229 121 282 234 29 61 32 75 32 167 0 93 -2 105 -32 165 -60 123 -146 193 -273 226 -83 21 -165 15 -370 -26 -218 -43 -334 -53 -565 -47 -246 7 -383 33 -512 98 -45 23 -87 47 -93 54 -22 26 -87 453 -73 478 2 4 352 7 778 7 535 0 790 3 827 11 129 28 254 131 298 246 95 245 -53 504 -314 552 -39 7 -288 11 -730 11 -598 0 -814 6 -914 26 l-24 5 6 387 c3 213 9 433 12 489 14 233 -52 393 -197 480 -96 57 -212 76 -309 49z"/>
 <path d="M8109 4719 c-20 -4 -81 -26 -135 -48 -55 -22 -135 -49 -179 -60 -114 -29 -354 -71 -461 -81 -50 -5 -226 -23 -390 -39 -165 -16 -348 -32 -409 -36 -60 -3 -186 -19 -280 -35 -93 -16 -199 -32 -235 -35 -165 -17 -285 -92 -365 -229 -40 -69 -92 -223 -104 -311 -8 -57 -8 -101 0 -160 12 -94 6 -1115 -9 -1385 -5 -91 -15 -259 -21 -375 -6 -115 -16 -271 -21 -346 -13 -177 -13 -487 1 -569 30 -184 169 -323 353 -351 39 -6 194 -8 392 -5 1336 23 1261 19 1366 72 191 97 272 332 181 526 -53 113 -147 190 -273 225 -58 16 -114 18 -510 18 -316 0 -477 -4 -554 -14 -104 -13 -110 -12 -123 5 -7 10 -11 25 -8 33 3 9 10 130 15 271 5 140 13 266 16 279 l7 24 117 -7 c177 -11 259 4 514 88 122 40 248 87 281 103 33 17 105 50 160 73 233 98 337 177 397 298 31 63 33 73 33 177 0 98 -3 116 -26 165 -57 121 -170 207 -306 232 -101 19 -166 1 -433 -117 -129 -56 -302 -125 -383 -151 l-149 -48 -70 12 c-119 21 -108 -12 -108 331 0 314 5 354 43 365 12 4 92 11 177 17 85 5 329 28 541 49 828 84 1221 199 1373 401 61 81 81 144 80 249 -1 98 -17 150 -71 228 -88 129 -270 198 -424 161z"/>
 <path d="M3637 4139 c-69 -10 -145 -42 -287 -123 -58 -32 -188 -102 -290 -155 -241 -126 -468 -274 -770 -503 -307 -234 -397 -312 -546 -478 -344 -383 -597 -727 -864 -1175 -29 -49 -79 -128 -110 -175 -32 -47 -81 -128 -110 -180 -30 -52 -88 -147 -130 -211 -94 -141 -116 -209 -107 -325 14 -183 152 -332 339 -364 125 -22 263 26 370 127 74 71 112 126 221 320 46 82 106 183 134 224 27 41 78 121 113 179 233 387 494 741 755 1023 136 148 207 209 487 418 303 226 573 394 621 387 21 -3 32 -35 123 -343 68 -232 132 -428 186 -569 27 -72 74 -198 103 -280 29 -83 65 -183 78 -221 25 -69 91 -304 140 -501 14 -55 31 -146 36 -203 14 -129 26 -180 64 -261 58 -124 172 -209 312 -233 209 -36 416 116 456 335 18 98 -10 334 -67 567 -53 218 -123 463 -166 581 -246 685 -377 1080 -458 1385 -68 255 -167 504 -237 597 -90 117 -246 179 -396 157z"/>
 </g>

</svg>